PathFileType	4	(X/Y/Z)	Patient4_TMGait_0pt6_02_right_20.trc.trc
DataRate	CameraRate	NumFrames	NumMarkers	Units	OrigDataRate	OrigDataStartFrame	OrigNumFrames
79.096045197740	79.096045197740	5	33	mm	79.096045197740	71	       141
Frame#	Time	Sacral			L.Shoulder			Chest			R.Shoulder			Neck			R.ASIS			L.ASIS			R.Thigh.Superior			R.Thigh.Lateral			R.Thigh.Inferior			R.Patella			L.Thigh.Superior			L.Thigh.Lateral			L.Thigh.Inferior			L.Patella			L.Shank.Superior			L.Shank.Lateral			L.Shank.Inferior			R.Shank.Superior			R.Shank.Lateral			R.Shank.Inferior			R.Heel			R.Midfoot.Superior			R.Midfoot.Lateral			R.Toe			L.Heel			L.Midfoot.Lateral			L.Midfoot.Superior			L.Toe			L.Elbow			L.Wrist			R.Elbow			R.Wrist			
		X1	Y1	Z1	X2	Y2	Z2	X3	Y3	Z3	X4	Y4	Z4	X5	Y5	Z5	X6	Y6	Z6	X7	Y7	Z7	X8	Y8	Z8	X9	Y9	Z9	X10	Y10	Z10	X11	Y11	Z11	X12	Y12	Z12	X13	Y13	Z13	X14	Y14	Z14	X15	Y15	Z15	X16	Y16	Z16	X17	Y17	Z17	X18	Y18	Z18	X19	Y19	Z19	X20	Y20	Z20	X21	Y21	Z21	X22	Y22	Z22	X23	Y23	Z23	X24	Y24	Z24	X25	Y25	Z25	X26	Y26	Z26	X27	Y27	Z27	X28	Y28	Z28	X29	Y29	Z29	X30	Y30	Z30	X31	Y31	Z31	X32	Y32	Z32	X33	Y33	Z33	

71	24.825000000000	829.971592585960	1006.525551534410	508.823211927169	985.828452038849	1426.223501091790	304.035801255002	1109.718556518527	1354.065212468250	446.397541609996	1057.386806563125	1436.046321375643	626.960587487113	1010.265769326679	1487.351495304147	453.378172739336	1061.348374182172	939.246622212155	606.234826757888	1025.885202754068	947.181622306122	331.099463779478	1055.237129713437	726.010797828020	583.511437980308	948.142106342330	633.507695678222	643.463632921391	1007.191874260039	567.387019785655	563.340291693000	986.681647674034	483.799535360243	566.013260627289	1100.068110478242	772.569150514942	365.983240477209	1053.064755703827	639.656240955418	290.993127279112	1159.617655888092	584.473561681998	348.822284132449	1187.400622943446	518.476189811613	344.716643077125	1172.485265269789	445.847131721951	336.664834998965	1106.804002491835	312.819961133071	294.621293524256	1200.625060005048	217.920043035680	345.390127061940	950.008646515979	400.534575465941	570.638915116647	867.881127832395	303.236113189876	629.626108226019	900.091097589140	206.266303020370	562.781447180892	752.714458274438	47.097604729609	525.903421105635	925.630349810988	97.266784048193	563.807919177641	835.335039864402	37.745827244551	600.214518845449	1043.751258671428	39.443065383170	591.025600008537	1124.282735357723	41.370209984615	395.246908699874	1191.359646999609	43.885559172145	309.460920252986	1264.514615671751	119.720148720401	323.604620423794	1394.862343784393	87.766372351401	287.611272353536	821.552770431091	1110.214255230760	216.662605888093	783.971619155239	856.341035477900	279.699302968184	1239.696520870558	1160.112935783981	737.001643556360	1428.544206597462	1263.849723365782	611.011489413866	
72	24.837642857143	831.591903622839	1005.057477052083	505.826122094300	986.369457502788	1425.384304427494	302.012994000872	1110.002023166085	1353.495063308141	444.751313067741	1056.541838435905	1434.828239608596	625.257060390507	1009.974697067361	1486.366125847714	451.607855537236	1062.467314872370	938.202982027510	604.491798026837	1028.433442627445	945.758869347321	329.222421595652	1055.429580859677	724.629513405839	582.056495696545	947.543189343899	632.698645144572	641.823322080530	1006.377401346600	566.051368554151	561.965425958424	984.951955185930	482.178017218240	564.462981129235	1101.884154267939	770.022456549187	364.285831023181	1052.619546621544	636.839042597719	291.050350703967	1159.218714965694	581.576272112682	348.594407610568	1185.594139752887	515.010595070888	345.498384813467	1170.623436130703	442.322848534674	337.438975489225	1104.051745571049	309.488401127450	296.550311648376	1197.460376674103	214.446853748100	347.595392624002	947.277406572981	399.192258401865	569.433398042101	863.699052476753	303.234944982108	628.708192360090	894.368402559416	205.651209346817	562.229875566909	745.144563813279	47.476690943948	525.990816767399	918.201647574793	97.367055022911	563.883795787381	827.736963336037	37.901755367510	600.254689677633	1036.134201708823	39.274619895168	591.135828070970	1119.217062288509	40.110028188970	398.511295831390	1185.681334178907	41.674948700618	312.102379300402	1260.711198832777	115.313158435608	326.341244931356	1390.131031336115	80.329179384310	289.117763341867	820.581803682444	1110.826514042107	214.203842276123	783.864495288069	856.938671855238	278.672268251235	1240.175699889303	1159.781105277247	734.990444407974	1427.739051964324	1266.504531882357	609.683091395327	
73	24.850285714286	833.172952262467	1003.711795682545	502.769566295282	987.034181185032	1424.522502483487	299.806046833550	1110.390643244092	1352.971567834980	442.991101632058	1055.750128550822	1433.746349184041	623.410447152228	1009.762291488971	1485.460048641964	449.611364779616	1063.616955772312	937.076208633627	602.637015350853	1030.980537898828	944.496654839220	327.325601311730	1055.779482985148	723.206296792171	580.414703181896	947.223869871688	631.786058903282	639.988409726342	1005.907086574088	564.653946662890	560.370825277231	983.626893251993	480.388440804977	562.707112153544	1103.809290233055	767.742437635591	362.661748662047	1052.558088708574	634.533786223481	290.843841537342	1159.057527907464	579.108016271268	348.386602675121	1183.906196777348	511.852394336253	346.241845048624	1168.783929192512	439.065747023245	338.065116591716	1101.167693115463	306.632317416112	297.862787228703	1193.686354088245	211.176208392935	349.492647003007	944.847842479665	397.742344264992	568.039139534461	859.742770642831	303.234439526266	627.623965850168	888.773856816081	205.025943116689	561.567772166990	737.589628727368	47.992823100071	526.064986688418	910.811896984378	97.483427950041	563.895155489860	820.157472475429	38.142865734894	600.266652336547	1028.536128462322	39.101453456059	591.244753940743	1112.905818871364	39.112937321361	401.042641679008	1179.000357099707	39.786808176012	314.192555447435	1255.919500860151	111.137845757229	328.864881546045	1384.490750625866	73.045867610136	290.762798303245	820.479708871443	1110.937198205097	211.452926875743	785.031566556434	856.928379384884	276.961072580142	1239.705043077924	1158.786675697000	733.370129652851	1426.560086630131	1267.635029909895	608.862664366679	
74	24.862928571429	834.661063549410	1002.550686255504	499.689744733988	987.826488507049	1423.682529129903	297.434448680410	1110.885329807795	1352.523017019544	441.129673053546	1055.057289078864	1432.870428712842	621.425121977190	1009.662504235164	1484.686066549933	447.396413152688	1064.745478395173	935.941077328629	600.693342176952	1033.453866950872	943.456548061400	325.424512768144	1056.275530468025	721.818734524741	578.587931495794	947.204855789839	630.817205589614	637.970879436982	1005.820226900690	563.253959321037	558.569824084798	982.781878467890	478.455206199696	560.794382195288	1105.826173245308	765.857766518818	361.136004761629	1052.955399363841	632.864926619676	290.302881316570	1159.183954552591	577.173935804674	348.117728180747	1182.445134048127	509.159154266183	346.813852706296	1167.090966495076	436.234449079426	338.444235875702	1098.352322894246	304.379997432544	298.426183869009	1189.529220312197	208.280427827768	350.961447687295	942.751924846461	396.234409378976	566.486082053989	856.044186675413	303.295170848070	626.396239621197	883.345225915635	204.453521756755	560.816747903645	730.066167913112	48.743164869157	526.132450152607	903.502649038950	97.630265661147	563.849252900982	812.613852266152	38.515389384076	600.250858311965	1020.971693640301	38.922289164225	591.345275009775	1105.757193089989	38.398668247077	402.798902722998	1171.696164422418	38.281498878715	315.674405621879	1250.377300520024	107.439802855219	331.009034581464	1378.218879220029	66.404495227805	292.375688333382	821.300939761229	1110.532225374004	208.430936443344	787.462598237589	856.302015874146	274.545067892552	1238.264511222684	1157.142783149310	732.130509980502	1425.033791028444	1267.201318575909	608.528652386911	
75	24.875571428571	836.012668850017	1001.632932551171	496.616061439330	988.736795019328	1422.917855753818	294.926477967822	1111.476564914516	1352.183985368321	439.182998001199	1054.501960728872	1432.266771283883	619.311560745395	1009.699594805031	1484.097576234789	444.983313513523	1065.802407870562	934.883775919817	598.677868847812	1035.784388196011	942.698431959746	323.520074125934	1056.911233365256	720.554072375683	576.580287782635	947.514968844384	629.848138407290	635.792280362046	1006.168665036496	561.918110926727	556.590132993045	982.508281987927	476.411848161544	558.799399365892	1107.903926996303	764.480446876030	359.702314305187	1053.834130554890	631.903488153886	289.388236496618	1159.605567122789	575.832905555352	347.702504282126	1181.280052514801	507.036851902978	347.093766940827	1165.618421300502	433.930661521889	338.509637366718	1095.720555872114	302.803524880780	298.202080267970	1185.146473951148	205.874176080586	351.941009686084	941.037577329648	394.726608669026	564.823626412552	852.645008931136	303.489949459310	625.059810865566	878.131614991477	204.006188232145	560.009987380239	722.597179720370	49.842334726588	526.200726571680	896.325449794567	97.824620187177	563.762786184668	805.126613737032	39.074134435885	600.211847565189	1013.453677175674	38.737802510505	591.428637634985	1098.112593980208	37.956302988694	403.825487447220	1164.059734758855	37.172942318536	316.561793432049	1244.266066807002	104.388884854723	332.663746852548	1371.519130972894	60.775552559868	293.797408282447	823.086387747927	1109.620233098417	205.170404471127	791.143778532864	855.075044803450	271.412027309002	1235.825779833830	1154.893040103876	731.244994693448	1423.177240089340	1265.166526936485	608.650941982809	
